<svg xmlns="http://www.w3.org/2000/svg" width="115.279" height="79.857" viewBox="0 0 115.279 79.857">
  <path id="guide_arrow" d="M15317.313-4412.452c-.789-.367-19.349-9.1-25.337-12.919a11.627,11.627,0,0,1-3.034-2.605,4.368,4.368,0,0,1-1-3.093c.008-.087.02-.179.036-.275a2,2,0,0,1,.165-.627,4.741,4.741,0,0,1,1.755-2.217,10.106,10.106,0,0,1,2.257-1.2c1.771-.708,22.809-6.046,27.007-7.109a2.005,2.005,0,0,1,2.432,1.45,2,2,0,0,1-1.45,2.428c-6.771,1.714-16.6,4.235-22.218,5.737,3.554.011,8.123-.108,13.28-.553,11.106-.955,27.292-3.661,41.333-11.1,14.063-7.453,26.063-19.7,33.655-28.668a162.36,162.36,0,0,0,13.3-17.953,2,2,0,0,1,2.753-.665,2,2,0,0,1,.661,2.749,162.728,162.728,0,0,1-13.615,18.4,155.82,155.82,0,0,1-15.3,15.788,101.683,101.683,0,0,1-19.58,13.886,96.289,96.289,0,0,1-22.116,8.211,137.246,137.246,0,0,1-20.833,3.352c-5.106.437-9.61.568-13.17.568-1.728,0-3.233-.031-4.479-.072q.148.1.311.2c5.771,3.688,24.69,12.583,24.88,12.672a1.994,1.994,0,0,1,1.141,2.018,2.049,2.049,0,0,1-.178.642,2,2,0,0,1-1.81,1.15A1.983,1.983,0,0,1,15317.313-4412.452Z" transform="translate(-15287.928 4492.118)" fill="#fff"/>
</svg>